<svg width="140" height="52" viewBox="0 0 140 52" fill="none" xmlns="http://www.w3.org/2000/svg">
<rect width="129" height="52" rx="10" fill="black"/>
<path d="M41.7881 18H40.2695L40.2793 17.0283H41.7881C42.2275 17.0283 42.5954 16.9323 42.8916 16.7402C43.1911 16.5482 43.4157 16.2731 43.5654 15.915C43.7184 15.557 43.7949 15.1305 43.7949 14.6357V14.25C43.7949 13.8659 43.751 13.5257 43.6631 13.2295C43.5785 12.9333 43.4515 12.6842 43.2822 12.4824C43.1162 12.2806 42.9111 12.1276 42.667 12.0234C42.4261 11.9193 42.1478 11.8672 41.832 11.8672H40.2402V10.8906H41.832C42.304 10.8906 42.7354 10.9704 43.126 11.1299C43.5166 11.2861 43.8535 11.5124 44.1367 11.8086C44.4232 12.1048 44.6429 12.4596 44.7959 12.873C44.9489 13.2865 45.0254 13.7487 45.0254 14.2598V14.6357C45.0254 15.1468 44.9489 15.609 44.7959 16.0225C44.6429 16.4359 44.4232 16.7907 44.1367 17.0869C43.8503 17.3799 43.5085 17.6061 43.1113 17.7656C42.7174 17.9219 42.2764 18 41.7881 18ZM40.9482 10.8906V18H39.7227V10.8906H40.9482ZM45.9141 15.417V15.3047C45.9141 14.9238 45.9694 14.5706 46.0801 14.2451C46.1908 13.9163 46.3503 13.6315 46.5586 13.3906C46.7702 13.1465 47.0273 12.9577 47.3301 12.8242C47.6361 12.6875 47.9811 12.6191 48.3652 12.6191C48.7526 12.6191 49.0977 12.6875 49.4004 12.8242C49.7064 12.9577 49.9652 13.1465 50.1768 13.3906C50.3883 13.6315 50.5495 13.9163 50.6602 14.2451C50.7708 14.5706 50.8262 14.9238 50.8262 15.3047V15.417C50.8262 15.7979 50.7708 16.151 50.6602 16.4766C50.5495 16.8021 50.3883 17.0869 50.1768 17.3311C49.9652 17.5719 49.708 17.7607 49.4053 17.8975C49.1025 18.0309 48.7591 18.0977 48.375 18.0977C47.9876 18.0977 47.641 18.0309 47.335 17.8975C47.0322 17.7607 46.7751 17.5719 46.5635 17.3311C46.3519 17.0869 46.1908 16.8021 46.0801 16.4766C45.9694 16.151 45.9141 15.7979 45.9141 15.417ZM47.0908 15.3047V15.417C47.0908 15.6546 47.1152 15.8792 47.1641 16.0908C47.2129 16.3024 47.2894 16.488 47.3936 16.6475C47.4977 16.807 47.6312 16.9323 47.7939 17.0234C47.9567 17.1146 48.1504 17.1602 48.375 17.1602C48.5931 17.1602 48.7819 17.1146 48.9414 17.0234C49.1042 16.9323 49.2376 16.807 49.3418 16.6475C49.446 16.488 49.5225 16.3024 49.5713 16.0908C49.6234 15.8792 49.6494 15.6546 49.6494 15.417V15.3047C49.6494 15.0703 49.6234 14.849 49.5713 14.6406C49.5225 14.429 49.4443 14.2419 49.3369 14.0791C49.2327 13.9163 49.0993 13.7894 48.9365 13.6982C48.777 13.6038 48.5866 13.5566 48.3652 13.5566C48.1439 13.5566 47.9518 13.6038 47.7891 13.6982C47.6296 13.7894 47.4977 13.9163 47.3936 14.0791C47.2894 14.2419 47.2129 14.429 47.1641 14.6406C47.1152 14.849 47.0908 15.0703 47.0908 15.3047ZM53.248 16.8281L54.4688 12.7168H55.2207L55.0156 13.9473L53.7852 18H53.1113L53.248 16.8281ZM52.5303 12.7168L53.4824 16.8477L53.5605 18H52.8086L51.3779 12.7168H52.5303ZM56.3633 16.7988L57.2861 12.7168H58.4336L57.0078 18H56.2559L56.3633 16.7988ZM55.3477 12.7168L56.5537 16.7793L56.7051 18H56.0312L54.7861 13.9424L54.5811 12.7168H55.3477ZM60.4014 13.8447V18H59.2246V12.7168H60.333L60.4014 13.8447ZM60.1914 15.1631L59.8105 15.1582C59.8138 14.7839 59.8659 14.4404 59.9668 14.1279C60.071 13.8154 60.2142 13.5469 60.3965 13.3223C60.582 13.0977 60.8034 12.9251 61.0605 12.8047C61.3177 12.681 61.6042 12.6191 61.9199 12.6191C62.1738 12.6191 62.4033 12.6549 62.6084 12.7266C62.8167 12.7949 62.9941 12.9072 63.1406 13.0635C63.2904 13.2197 63.4043 13.4232 63.4824 13.6738C63.5605 13.9212 63.5996 14.2256 63.5996 14.5869V18H62.418V14.582C62.418 14.3281 62.3805 14.1279 62.3057 13.9814C62.234 13.8317 62.1283 13.7259 61.9883 13.6641C61.8516 13.599 61.6807 13.5664 61.4756 13.5664C61.2738 13.5664 61.0931 13.6087 60.9336 13.6934C60.7741 13.778 60.639 13.8936 60.5283 14.04C60.4209 14.1865 60.3379 14.3558 60.2793 14.5479C60.2207 14.7399 60.1914 14.945 60.1914 15.1631ZM66.0605 10.5V18H64.8789V10.5H66.0605ZM67.125 15.417V15.3047C67.125 14.9238 67.1803 14.5706 67.291 14.2451C67.4017 13.9163 67.5612 13.6315 67.7695 13.3906C67.9811 13.1465 68.2383 12.9577 68.541 12.8242C68.847 12.6875 69.1921 12.6191 69.5762 12.6191C69.9635 12.6191 70.3086 12.6875 70.6113 12.8242C70.9173 12.9577 71.1761 13.1465 71.3877 13.3906C71.5993 13.6315 71.7604 13.9163 71.8711 14.2451C71.9818 14.5706 72.0371 14.9238 72.0371 15.3047V15.417C72.0371 15.7979 71.9818 16.151 71.8711 16.4766C71.7604 16.8021 71.5993 17.0869 71.3877 17.3311C71.1761 17.5719 70.9189 17.7607 70.6162 17.8975C70.3135 18.0309 69.9701 18.0977 69.5859 18.0977C69.1986 18.0977 68.8519 18.0309 68.5459 17.8975C68.2432 17.7607 67.986 17.5719 67.7744 17.3311C67.5628 17.0869 67.4017 16.8021 67.291 16.4766C67.1803 16.151 67.125 15.7979 67.125 15.417ZM68.3018 15.3047V15.417C68.3018 15.6546 68.3262 15.8792 68.375 16.0908C68.4238 16.3024 68.5003 16.488 68.6045 16.6475C68.7087 16.807 68.8421 16.9323 69.0049 17.0234C69.1676 17.1146 69.3613 17.1602 69.5859 17.1602C69.804 17.1602 69.9928 17.1146 70.1523 17.0234C70.3151 16.9323 70.4486 16.807 70.5527 16.6475C70.6569 16.488 70.7334 16.3024 70.7822 16.0908C70.8343 15.8792 70.8604 15.6546 70.8604 15.417V15.3047C70.8604 15.0703 70.8343 14.849 70.7822 14.6406C70.7334 14.429 70.6553 14.2419 70.5479 14.0791C70.4437 13.9163 70.3102 13.7894 70.1475 13.6982C69.988 13.6038 69.7975 13.5566 69.5762 13.5566C69.3548 13.5566 69.1628 13.6038 69 13.6982C68.8405 13.7894 68.7087 13.9163 68.6045 14.0791C68.5003 14.2419 68.4238 14.429 68.375 14.6406C68.3262 14.849 68.3018 15.0703 68.3018 15.3047ZM76.002 16.9404V14.4209C76.002 14.2321 75.9678 14.0693 75.8994 13.9326C75.8311 13.7959 75.7269 13.6901 75.5869 13.6152C75.4502 13.5404 75.2777 13.5029 75.0693 13.5029C74.8773 13.5029 74.7113 13.5355 74.5713 13.6006C74.4313 13.6657 74.3223 13.7536 74.2441 13.8643C74.166 13.9749 74.127 14.1003 74.127 14.2402H72.9551C72.9551 14.0319 73.0055 13.8301 73.1064 13.6348C73.2074 13.4395 73.3538 13.2653 73.5459 13.1123C73.738 12.9593 73.9674 12.8389 74.2344 12.751C74.5013 12.6631 74.8008 12.6191 75.1328 12.6191C75.5299 12.6191 75.8815 12.6859 76.1875 12.8193C76.4967 12.9528 76.7393 13.1546 76.915 13.4248C77.0941 13.6917 77.1836 14.027 77.1836 14.4307V16.7793C77.1836 17.0202 77.1999 17.2367 77.2324 17.4287C77.2682 17.6175 77.3187 17.7819 77.3838 17.9219V18H76.1777C76.1224 17.873 76.0785 17.7119 76.0459 17.5166C76.0166 17.318 76.002 17.126 76.002 16.9404ZM76.1729 14.7871L76.1826 15.5146H75.3379C75.1198 15.5146 74.9277 15.5358 74.7617 15.5781C74.5957 15.6172 74.4574 15.6758 74.3467 15.7539C74.236 15.832 74.153 15.9264 74.0977 16.0371C74.0423 16.1478 74.0146 16.2731 74.0146 16.4131C74.0146 16.5531 74.0472 16.6816 74.1123 16.7988C74.1774 16.9128 74.2718 17.0023 74.3955 17.0674C74.5225 17.1325 74.6755 17.165 74.8545 17.165C75.0954 17.165 75.3053 17.1162 75.4844 17.0186C75.6667 16.9176 75.8099 16.7956 75.9141 16.6523C76.0182 16.5059 76.0736 16.3675 76.0801 16.2373L76.4609 16.7598C76.4219 16.8932 76.3551 17.0365 76.2607 17.1895C76.1663 17.3424 76.0426 17.4889 75.8896 17.6289C75.7399 17.7656 75.5592 17.8779 75.3477 17.9658C75.1393 18.0537 74.8984 18.0977 74.625 18.0977C74.2799 18.0977 73.9723 18.0293 73.7021 17.8926C73.432 17.7526 73.2204 17.5654 73.0674 17.3311C72.9144 17.0934 72.8379 16.8249 72.8379 16.5254C72.8379 16.2454 72.89 15.998 72.9941 15.7832C73.1016 15.5651 73.2578 15.3828 73.4629 15.2363C73.6712 15.0898 73.9251 14.9792 74.2246 14.9043C74.5241 14.8262 74.8659 14.7871 75.25 14.7871H76.1729ZM81.6367 16.9062V10.5H82.8184V18H81.749L81.6367 16.9062ZM78.1992 15.417V15.3145C78.1992 14.9141 78.2464 14.5495 78.3408 14.2207C78.4352 13.8887 78.5719 13.6038 78.751 13.3662C78.93 13.1253 79.1481 12.9414 79.4053 12.8145C79.6624 12.6842 79.9521 12.6191 80.2744 12.6191C80.5934 12.6191 80.8734 12.681 81.1143 12.8047C81.3551 12.9284 81.5602 13.1058 81.7295 13.3369C81.8988 13.5648 82.0339 13.8382 82.1348 14.1572C82.2357 14.473 82.3073 14.8245 82.3496 15.2119V15.5391C82.3073 15.9167 82.2357 16.2617 82.1348 16.5742C82.0339 16.8867 81.8988 17.1569 81.7295 17.3848C81.5602 17.6126 81.3535 17.7884 81.1094 17.9121C80.8685 18.0358 80.5869 18.0977 80.2646 18.0977C79.9456 18.0977 79.6576 18.0309 79.4004 17.8975C79.1465 17.764 78.93 17.5768 78.751 17.3359C78.5719 17.0951 78.4352 16.8118 78.3408 16.4863C78.2464 16.1576 78.1992 15.8011 78.1992 15.417ZM79.376 15.3145V15.417C79.376 15.6579 79.3971 15.8825 79.4395 16.0908C79.485 16.2992 79.555 16.4831 79.6494 16.6426C79.7438 16.7988 79.8659 16.9225 80.0156 17.0137C80.1686 17.1016 80.3509 17.1455 80.5625 17.1455C80.8294 17.1455 81.0492 17.0869 81.2217 16.9697C81.3942 16.8525 81.5293 16.6947 81.627 16.4961C81.7279 16.2943 81.7962 16.0697 81.832 15.8223V14.9385C81.8125 14.7464 81.7718 14.5674 81.71 14.4014C81.6514 14.2354 81.5716 14.0905 81.4707 13.9668C81.3698 13.8398 81.2445 13.7422 81.0947 13.6738C80.9482 13.6022 80.7741 13.5664 80.5723 13.5664C80.3574 13.5664 80.1751 13.612 80.0254 13.7031C79.8757 13.7943 79.752 13.9196 79.6543 14.0791C79.5599 14.2386 79.4899 14.4242 79.4443 14.6357C79.3988 14.8473 79.376 15.0736 79.376 15.3145ZM86.3145 15.417V15.3047C86.3145 14.9238 86.3698 14.5706 86.4805 14.2451C86.5911 13.9163 86.7507 13.6315 86.959 13.3906C87.1706 13.1465 87.4277 12.9577 87.7305 12.8242C88.0365 12.6875 88.3815 12.6191 88.7656 12.6191C89.153 12.6191 89.498 12.6875 89.8008 12.8242C90.1068 12.9577 90.3656 13.1465 90.5771 13.3906C90.7887 13.6315 90.9499 13.9163 91.0605 14.2451C91.1712 14.5706 91.2266 14.9238 91.2266 15.3047V15.417C91.2266 15.7979 91.1712 16.151 91.0605 16.4766C90.9499 16.8021 90.7887 17.0869 90.5771 17.3311C90.3656 17.5719 90.1084 17.7607 89.8057 17.8975C89.5029 18.0309 89.1595 18.0977 88.7754 18.0977C88.388 18.0977 88.0413 18.0309 87.7354 17.8975C87.4326 17.7607 87.1755 17.5719 86.9639 17.3311C86.7523 17.0869 86.5911 16.8021 86.4805 16.4766C86.3698 16.151 86.3145 15.7979 86.3145 15.417ZM87.4912 15.3047V15.417C87.4912 15.6546 87.5156 15.8792 87.5645 16.0908C87.6133 16.3024 87.6898 16.488 87.7939 16.6475C87.8981 16.807 88.0316 16.9323 88.1943 17.0234C88.3571 17.1146 88.5508 17.1602 88.7754 17.1602C88.9935 17.1602 89.1823 17.1146 89.3418 17.0234C89.5046 16.9323 89.638 16.807 89.7422 16.6475C89.8464 16.488 89.9229 16.3024 89.9717 16.0908C90.0238 15.8792 90.0498 15.6546 90.0498 15.417V15.3047C90.0498 15.0703 90.0238 14.849 89.9717 14.6406C89.9229 14.429 89.8447 14.2419 89.7373 14.0791C89.6331 13.9163 89.4997 13.7894 89.3369 13.6982C89.1774 13.6038 88.987 13.5566 88.7656 13.5566C88.5443 13.5566 88.3522 13.6038 88.1895 13.6982C88.0299 13.7894 87.8981 13.9163 87.7939 14.0791C87.6898 14.2419 87.6133 14.429 87.5645 14.6406C87.5156 14.849 87.4912 15.0703 87.4912 15.3047ZM93.3799 13.8447V18H92.2031V12.7168H93.3115L93.3799 13.8447ZM93.1699 15.1631L92.7891 15.1582C92.7923 14.7839 92.8444 14.4404 92.9453 14.1279C93.0495 13.8154 93.1927 13.5469 93.375 13.3223C93.5605 13.0977 93.7819 12.9251 94.0391 12.8047C94.2962 12.681 94.5827 12.6191 94.8984 12.6191C95.1523 12.6191 95.3818 12.6549 95.5869 12.7266C95.7952 12.7949 95.9727 12.9072 96.1191 13.0635C96.2689 13.2197 96.3828 13.4232 96.4609 13.6738C96.5391 13.9212 96.5781 14.2256 96.5781 14.5869V18H95.3965V14.582C95.3965 14.3281 95.359 14.1279 95.2842 13.9814C95.2126 13.8317 95.1068 13.7259 94.9668 13.6641C94.8301 13.599 94.6592 13.5664 94.4541 13.5664C94.2523 13.5664 94.0716 13.6087 93.9121 13.6934C93.7526 13.778 93.6175 13.8936 93.5068 14.04C93.3994 14.1865 93.3164 14.3558 93.2578 14.5479C93.1992 14.7399 93.1699 14.945 93.1699 15.1631ZM102.691 12.7168V13.5762H99.7129V12.7168H102.691ZM100.572 11.4229H101.749V16.54C101.749 16.7028 101.772 16.8281 101.817 16.916C101.866 17.0007 101.933 17.0576 102.018 17.0869C102.102 17.1162 102.201 17.1309 102.315 17.1309C102.397 17.1309 102.475 17.126 102.55 17.1162C102.625 17.1064 102.685 17.0967 102.73 17.0869L102.735 17.9854C102.638 18.0146 102.524 18.0407 102.394 18.0635C102.267 18.0863 102.12 18.0977 101.954 18.0977C101.684 18.0977 101.445 18.0505 101.236 17.9561C101.028 17.8584 100.865 17.7005 100.748 17.4824C100.631 17.2643 100.572 16.9746 100.572 16.6133V11.4229ZM104.762 10.5V18H103.59V10.5H104.762ZM104.557 15.1631L104.176 15.1582C104.179 14.7936 104.229 14.4567 104.327 14.1475C104.428 13.8382 104.568 13.5697 104.747 13.3418C104.929 13.1107 105.147 12.9333 105.401 12.8096C105.655 12.6826 105.937 12.6191 106.246 12.6191C106.507 12.6191 106.741 12.6549 106.949 12.7266C107.161 12.7982 107.343 12.9137 107.496 13.0732C107.649 13.2295 107.765 13.4346 107.843 13.6885C107.924 13.9391 107.965 14.2451 107.965 14.6064V18H106.783V14.5967C106.783 14.3428 106.746 14.141 106.671 13.9912C106.599 13.8415 106.493 13.734 106.354 13.6689C106.214 13.6006 106.043 13.5664 105.841 13.5664C105.629 13.5664 105.442 13.6087 105.279 13.6934C105.12 13.778 104.986 13.8936 104.879 14.04C104.771 14.1865 104.69 14.3558 104.635 14.5479C104.583 14.7399 104.557 14.945 104.557 15.1631ZM111.485 18.0977C111.095 18.0977 110.742 18.0342 110.426 17.9072C110.113 17.777 109.846 17.5964 109.625 17.3652C109.407 17.1341 109.239 16.8623 109.122 16.5498C109.005 16.2373 108.946 15.9004 108.946 15.5391V15.3438C108.946 14.9303 109.007 14.556 109.127 14.2207C109.247 13.8854 109.415 13.599 109.63 13.3613C109.845 13.1204 110.099 12.9365 110.392 12.8096C110.685 12.6826 111.002 12.6191 111.344 12.6191C111.721 12.6191 112.052 12.6826 112.335 12.8096C112.618 12.9365 112.853 13.1156 113.038 13.3467C113.227 13.5745 113.367 13.8464 113.458 14.1621C113.552 14.4779 113.6 14.8262 113.6 15.207V15.71H109.518V14.8652H112.438V14.7725C112.431 14.5609 112.389 14.3623 112.311 14.1768C112.236 13.9912 112.12 13.8415 111.964 13.7275C111.808 13.6136 111.599 13.5566 111.339 13.5566C111.144 13.5566 110.969 13.599 110.816 13.6836C110.667 13.765 110.541 13.8838 110.44 14.04C110.34 14.1963 110.261 14.3851 110.206 14.6064C110.154 14.8245 110.128 15.0703 110.128 15.3438V15.5391C110.128 15.7702 110.159 15.985 110.221 16.1836C110.286 16.3789 110.38 16.5498 110.504 16.6963C110.628 16.8428 110.777 16.9583 110.953 17.043C111.129 17.1243 111.329 17.165 111.554 17.165C111.837 17.165 112.089 17.1081 112.311 16.9941C112.532 16.8802 112.724 16.7191 112.887 16.5107L113.507 17.1113C113.393 17.2773 113.245 17.4368 113.062 17.5898C112.88 17.7396 112.657 17.8617 112.394 17.9561C112.133 18.0505 111.83 18.0977 111.485 18.0977Z" fill="white"/>
<path d="M44.5859 25.1406L41.1875 35H39.1328L43.4141 23.625H44.7266L44.5859 25.1406ZM47.4297 35L44.0234 25.1406L43.875 23.625H45.1953L49.4922 35H47.4297ZM47.2656 30.7812V32.3359H41.0781V30.7812H47.2656ZM52.3281 28.1719V38.25H50.4453V26.5469H52.1797L52.3281 28.1719ZM57.8359 30.6953V30.8594C57.8359 31.474 57.763 32.0443 57.6172 32.5703C57.4766 33.0911 57.2656 33.5469 56.9844 33.9375C56.7083 34.3229 56.3672 34.6224 55.9609 34.8359C55.5547 35.0495 55.0859 35.1562 54.5547 35.1562C54.0286 35.1562 53.5677 35.0599 53.1719 34.8672C52.7812 34.6693 52.4505 34.3906 52.1797 34.0312C51.9089 33.6719 51.6901 33.25 51.5234 32.7656C51.362 32.276 51.2474 31.7396 51.1797 31.1562V30.5234C51.2474 29.9036 51.362 29.3411 51.5234 28.8359C51.6901 28.3307 51.9089 27.8958 52.1797 27.5312C52.4505 27.1667 52.7812 26.8854 53.1719 26.6875C53.5625 26.4896 54.0182 26.3906 54.5391 26.3906C55.0703 26.3906 55.5417 26.4948 55.9531 26.7031C56.3646 26.9062 56.7109 27.1979 56.9922 27.5781C57.2734 27.9531 57.4844 28.4062 57.625 28.9375C57.7656 29.4635 57.8359 30.0495 57.8359 30.6953ZM55.9531 30.8594V30.6953C55.9531 30.3047 55.9167 29.9427 55.8438 29.6094C55.7708 29.2708 55.6562 28.974 55.5 28.7188C55.3438 28.4635 55.1432 28.2656 54.8984 28.125C54.6589 27.9792 54.3698 27.9062 54.0312 27.9062C53.6979 27.9062 53.4115 27.9635 53.1719 28.0781C52.9323 28.1875 52.7318 28.3411 52.5703 28.5391C52.4089 28.737 52.2839 28.9688 52.1953 29.2344C52.1068 29.4948 52.0443 29.7786 52.0078 30.0859V31.6016C52.0703 31.9766 52.1771 32.3203 52.3281 32.6328C52.4792 32.9453 52.6927 33.1953 52.9688 33.3828C53.25 33.5651 53.6094 33.6562 54.0469 33.6562C54.3854 33.6562 54.6745 33.5833 54.9141 33.4375C55.1536 33.2917 55.349 33.0911 55.5 32.8359C55.6562 32.5755 55.7708 32.276 55.8438 31.9375C55.9167 31.599 55.9531 31.2396 55.9531 30.8594ZM61.3281 28.1719V38.25H59.4453V26.5469H61.1797L61.3281 28.1719ZM66.8359 30.6953V30.8594C66.8359 31.474 66.763 32.0443 66.6172 32.5703C66.4766 33.0911 66.2656 33.5469 65.9844 33.9375C65.7083 34.3229 65.3672 34.6224 64.9609 34.8359C64.5547 35.0495 64.0859 35.1562 63.5547 35.1562C63.0286 35.1562 62.5677 35.0599 62.1719 34.8672C61.7812 34.6693 61.4505 34.3906 61.1797 34.0312C60.9089 33.6719 60.6901 33.25 60.5234 32.7656C60.362 32.276 60.2474 31.7396 60.1797 31.1562V30.5234C60.2474 29.9036 60.362 29.3411 60.5234 28.8359C60.6901 28.3307 60.9089 27.8958 61.1797 27.5312C61.4505 27.1667 61.7812 26.8854 62.1719 26.6875C62.5625 26.4896 63.0182 26.3906 63.5391 26.3906C64.0703 26.3906 64.5417 26.4948 64.9531 26.7031C65.3646 26.9062 65.7109 27.1979 65.9922 27.5781C66.2734 27.9531 66.4844 28.4062 66.625 28.9375C66.7656 29.4635 66.8359 30.0495 66.8359 30.6953ZM64.9531 30.8594V30.6953C64.9531 30.3047 64.9167 29.9427 64.8438 29.6094C64.7708 29.2708 64.6562 28.974 64.5 28.7188C64.3438 28.4635 64.1432 28.2656 63.8984 28.125C63.6589 27.9792 63.3698 27.9062 63.0312 27.9062C62.6979 27.9062 62.4115 27.9635 62.1719 28.0781C61.9323 28.1875 61.7318 28.3411 61.5703 28.5391C61.4089 28.737 61.2839 28.9688 61.1953 29.2344C61.1068 29.4948 61.0443 29.7786 61.0078 30.0859V31.6016C61.0703 31.9766 61.1771 32.3203 61.3281 32.6328C61.4792 32.9453 61.6927 33.1953 61.9688 33.3828C62.25 33.5651 62.6094 33.6562 63.0469 33.6562C63.3854 33.6562 63.6745 33.5833 63.9141 33.4375C64.1536 33.2917 64.349 33.0911 64.5 32.8359C64.6562 32.5755 64.7708 32.276 64.8438 31.9375C64.9167 31.599 64.9531 31.2396 64.9531 30.8594ZM78.5938 32.0703C78.5938 31.8359 78.5573 31.6276 78.4844 31.4453C78.4167 31.263 78.2943 31.0964 78.1172 30.9453C77.9401 30.7943 77.6901 30.6484 77.3672 30.5078C77.0495 30.362 76.6432 30.2135 76.1484 30.0625C75.6068 29.8958 75.1068 29.7109 74.6484 29.5078C74.1953 29.2995 73.7995 29.0599 73.4609 28.7891C73.1224 28.513 72.8594 28.1979 72.6719 27.8438C72.4844 27.4844 72.3906 27.0703 72.3906 26.6016C72.3906 26.138 72.487 25.7161 72.6797 25.3359C72.8776 24.9557 73.1562 24.6276 73.5156 24.3516C73.8802 24.0703 74.3099 23.8542 74.8047 23.7031C75.2995 23.5469 75.8464 23.4688 76.4453 23.4688C77.2891 23.4688 78.0156 23.625 78.625 23.9375C79.2396 24.25 79.7109 24.6693 80.0391 25.1953C80.3724 25.7214 80.5391 26.3021 80.5391 26.9375H78.5938C78.5938 26.5625 78.513 26.2318 78.3516 25.9453C78.1953 25.6536 77.9557 25.4245 77.6328 25.2578C77.3151 25.0911 76.9115 25.0078 76.4219 25.0078C75.9583 25.0078 75.5729 25.0781 75.2656 25.2188C74.9583 25.3594 74.7292 25.5495 74.5781 25.7891C74.4271 26.0286 74.3516 26.2995 74.3516 26.6016C74.3516 26.8151 74.401 27.0104 74.5 27.1875C74.599 27.3594 74.75 27.5208 74.9531 27.6719C75.1562 27.8177 75.4115 27.9557 75.7188 28.0859C76.026 28.2161 76.388 28.3411 76.8047 28.4609C77.4349 28.6484 77.9844 28.8568 78.4531 29.0859C78.9219 29.3099 79.3125 29.5651 79.625 29.8516C79.9375 30.138 80.1719 30.4635 80.3281 30.8281C80.4844 31.1875 80.5625 31.5964 80.5625 32.0547C80.5625 32.5339 80.4661 32.9661 80.2734 33.3516C80.0807 33.7318 79.8047 34.0573 79.4453 34.3281C79.0911 34.5938 78.6641 34.7995 78.1641 34.9453C77.6693 35.0859 77.1172 35.1562 76.5078 35.1562C75.9609 35.1562 75.4219 35.0833 74.8906 34.9375C74.3646 34.7917 73.8854 34.5703 73.4531 34.2734C73.0208 33.9714 72.6771 33.5964 72.4219 33.1484C72.1667 32.6953 72.0391 32.1667 72.0391 31.5625H74C74 31.9323 74.0625 32.2474 74.1875 32.5078C74.3177 32.7682 74.4974 32.9818 74.7266 33.1484C74.9557 33.3099 75.2214 33.4297 75.5234 33.5078C75.8307 33.5859 76.1589 33.625 76.5078 33.625C76.9661 33.625 77.349 33.5599 77.6562 33.4297C77.9688 33.2995 78.2031 33.1172 78.3594 32.8828C78.5156 32.6484 78.5938 32.3776 78.5938 32.0703ZM85.9844 26.5469V27.9219H81.2188V26.5469H85.9844ZM82.5938 24.4766H84.4766V32.6641C84.4766 32.9245 84.513 33.125 84.5859 33.2656C84.6641 33.401 84.7708 33.4922 84.9062 33.5391C85.0417 33.5859 85.2005 33.6094 85.3828 33.6094C85.513 33.6094 85.638 33.6016 85.7578 33.5859C85.8776 33.5703 85.974 33.5547 86.0469 33.5391L86.0547 34.9766C85.8984 35.0234 85.7161 35.0651 85.5078 35.1016C85.3047 35.138 85.0703 35.1562 84.8047 35.1562C84.3724 35.1562 83.9896 35.0807 83.6562 34.9297C83.3229 34.7734 83.0625 34.5208 82.875 34.1719C82.6875 33.8229 82.5938 33.3594 82.5938 32.7812V24.4766ZM86.8906 30.8672V30.6875C86.8906 30.0781 86.9792 29.513 87.1562 28.9922C87.3333 28.4661 87.5885 28.0104 87.9219 27.625C88.2604 27.2344 88.6719 26.9323 89.1562 26.7188C89.6458 26.5 90.1979 26.3906 90.8125 26.3906C91.4323 26.3906 91.9844 26.5 92.4688 26.7188C92.9583 26.9323 93.3724 27.2344 93.7109 27.625C94.0495 28.0104 94.3073 28.4661 94.4844 28.9922C94.6615 29.513 94.75 30.0781 94.75 30.6875V30.8672C94.75 31.4766 94.6615 32.0417 94.4844 32.5625C94.3073 33.0833 94.0495 33.5391 93.7109 33.9297C93.3724 34.3151 92.9609 34.6172 92.4766 34.8359C91.9922 35.0495 91.4427 35.1562 90.8281 35.1562C90.2083 35.1562 89.6536 35.0495 89.1641 34.8359C88.6797 34.6172 88.2682 34.3151 87.9297 33.9297C87.5911 33.5391 87.3333 33.0833 87.1562 32.5625C86.9792 32.0417 86.8906 31.4766 86.8906 30.8672ZM88.7734 30.6875V30.8672C88.7734 31.2474 88.8125 31.6068 88.8906 31.9453C88.9688 32.2839 89.0911 32.5807 89.2578 32.8359C89.4245 33.0911 89.638 33.2917 89.8984 33.4375C90.1589 33.5833 90.4688 33.6562 90.8281 33.6562C91.1771 33.6562 91.4792 33.5833 91.7344 33.4375C91.9948 33.2917 92.2083 33.0911 92.375 32.8359C92.5417 32.5807 92.6641 32.2839 92.7422 31.9453C92.8255 31.6068 92.8672 31.2474 92.8672 30.8672V30.6875C92.8672 30.3125 92.8255 29.9583 92.7422 29.625C92.6641 29.2865 92.5391 28.987 92.3672 28.7266C92.2005 28.4661 91.987 28.263 91.7266 28.1172C91.4714 27.9661 91.1667 27.8906 90.8125 27.8906C90.4583 27.8906 90.151 27.9661 89.8906 28.1172C89.6354 28.263 89.4245 28.4661 89.2578 28.7266C89.0911 28.987 88.9688 29.2865 88.8906 29.625C88.8125 29.9583 88.7734 30.3125 88.7734 30.6875ZM98.2188 28.1562V35H96.3359V26.5469H98.1328L98.2188 28.1562ZM100.805 26.4922L100.789 28.2422C100.674 28.2214 100.549 28.2057 100.414 28.1953C100.284 28.1849 100.154 28.1797 100.023 28.1797C99.7005 28.1797 99.4167 28.2266 99.1719 28.3203C98.9271 28.4089 98.7214 28.5391 98.5547 28.7109C98.3932 28.8776 98.2682 29.0807 98.1797 29.3203C98.0911 29.5599 98.0391 29.8281 98.0234 30.125L97.5938 30.1562C97.5938 29.625 97.6458 29.1328 97.75 28.6797C97.8542 28.2266 98.0104 27.8281 98.2188 27.4844C98.4323 27.1406 98.6979 26.8724 99.0156 26.6797C99.3385 26.487 99.7109 26.3906 100.133 26.3906C100.247 26.3906 100.37 26.401 100.5 26.4219C100.635 26.4427 100.737 26.4661 100.805 26.4922ZM105.555 35.1562C104.93 35.1562 104.365 35.0547 103.859 34.8516C103.359 34.6432 102.932 34.3542 102.578 33.9844C102.229 33.6146 101.961 33.1797 101.773 32.6797C101.586 32.1797 101.492 31.6406 101.492 31.0625V30.75C101.492 30.0885 101.589 29.4896 101.781 28.9531C101.974 28.4167 102.242 27.9583 102.586 27.5781C102.93 27.1927 103.336 26.8984 103.805 26.6953C104.273 26.4922 104.781 26.3906 105.328 26.3906C105.932 26.3906 106.461 26.4922 106.914 26.6953C107.367 26.8984 107.742 27.1849 108.039 27.5547C108.341 27.9193 108.565 28.3542 108.711 28.8594C108.862 29.3646 108.938 29.9219 108.938 30.5312V31.3359H102.406V29.9844H107.078V29.8359C107.068 29.4974 107 29.1797 106.875 28.8828C106.755 28.5859 106.57 28.3464 106.32 28.1641C106.07 27.9818 105.737 27.8906 105.32 27.8906C105.008 27.8906 104.729 27.9583 104.484 28.0938C104.245 28.224 104.044 28.4141 103.883 28.6641C103.721 28.9141 103.596 29.2161 103.508 29.5703C103.424 29.9193 103.383 30.3125 103.383 30.75V31.0625C103.383 31.4323 103.432 31.776 103.531 32.0938C103.635 32.4062 103.786 32.6797 103.984 32.9141C104.182 33.1484 104.422 33.3333 104.703 33.4688C104.984 33.599 105.305 33.6641 105.664 33.6641C106.117 33.6641 106.521 33.5729 106.875 33.3906C107.229 33.2083 107.536 32.9505 107.797 32.6172L108.789 33.5781C108.607 33.8438 108.37 34.099 108.078 34.3438C107.786 34.5833 107.43 34.7786 107.008 34.9297C106.591 35.0807 106.107 35.1562 105.555 35.1562Z" fill="white"/>
<g clip-path="url(#clip0_20_152)">
<path d="M24.8696 8.01351C24.8122 7.94939 22.7451 8.03882 20.9462 9.99126C19.1473 11.942 19.4241 14.1796 19.4646 14.237C19.5051 14.2944 22.0296 14.3838 23.6411 12.1141C25.2527 9.84445 24.927 8.07932 24.8696 8.01351ZM30.462 27.8129C30.381 27.6509 26.5386 25.7306 26.8963 22.0383C27.2541 18.3444 29.7229 17.3319 29.7617 17.2222C29.8005 17.1125 28.7542 15.8891 27.6456 15.2698C26.8315 14.8331 25.9306 14.583 25.008 14.5374C24.8257 14.5323 24.1929 14.3771 22.8919 14.7331C22.0346 14.9677 20.1024 15.7271 19.5709 15.7574C19.0376 15.7878 17.4514 14.8766 15.7453 14.6353C14.6535 14.4243 13.4959 14.8563 12.6673 15.1888C11.8404 15.5195 10.2677 16.4611 9.16743 18.9637C8.06718 21.4646 8.64262 25.4268 9.05437 26.6587C9.46612 27.8889 10.1091 29.9054 11.2026 31.3769C12.1746 33.0374 13.4638 34.19 14.0021 34.5815C14.5404 34.973 16.0592 35.2329 17.1122 34.6946C17.9593 34.1748 19.4882 33.8761 20.0923 33.8981C20.6947 33.92 21.8827 34.1579 23.0994 34.8076C24.063 35.1401 24.9742 35.0017 25.8872 34.6304C26.8001 34.2575 28.1214 32.8434 29.6638 29.9763C30.2494 28.6432 30.516 27.9226 30.462 27.8129Z" fill="#F8F8F8"/>
<path d="M24.8696 8.01351C24.8122 7.94939 22.7451 8.03882 20.9462 9.99126C19.1473 11.942 19.4241 14.1796 19.4646 14.237C19.5051 14.2944 22.0296 14.3838 23.6411 12.1141C25.2527 9.84445 24.927 8.07932 24.8696 8.01351ZM30.462 27.8129C30.381 27.6509 26.5386 25.7306 26.8963 22.0383C27.2541 18.3444 29.7229 17.3319 29.7617 17.2222C29.8005 17.1125 28.7542 15.8891 27.6456 15.2698C26.8315 14.8331 25.9306 14.583 25.008 14.5374C24.8257 14.5323 24.1929 14.3771 22.8919 14.7331C22.0346 14.9677 20.1024 15.7271 19.5709 15.7574C19.0376 15.7878 17.4514 14.8766 15.7453 14.6353C14.6535 14.4243 13.4959 14.8563 12.6673 15.1888C11.8404 15.5195 10.2677 16.4611 9.16743 18.9637C8.06718 21.4646 8.64262 25.4268 9.05437 26.6587C9.46612 27.8889 10.1091 29.9054 11.2026 31.3769C12.1746 33.0374 13.4638 34.19 14.0021 34.5815C14.5404 34.973 16.0592 35.2329 17.1122 34.6946C17.9593 34.1748 19.4882 33.8761 20.0923 33.8981C20.6947 33.92 21.8827 34.1579 23.0994 34.8076C24.063 35.1401 24.9742 35.0017 25.8872 34.6304C26.8001 34.2575 28.1214 32.8434 29.6638 29.9763C30.2494 28.6432 30.516 27.9226 30.462 27.8129Z" fill="#F8F8F8"/>
</g>
<defs>
<clipPath id="clip0_20_152">
<rect width="27" height="27" fill="white" transform="translate(6 8)"/>
</clipPath>
</defs>
</svg>
