<svg width="43" height="40" viewBox="0 0 43 40" fill="none" xmlns="http://www.w3.org/2000/svg">
<ellipse cx="21.3643" cy="20" rx="21.3604" ry="20" fill="#F8C700"/>
<g clip-path="url(#clip0_45_174)">
<path d="M40.606 20C40.606 10.0589 31.9911 2 21.364 2C10.737 2 2.12207 10.0589 2.12207 20C2.12207 29.9411 10.737 38 21.364 38C31.9911 38 40.606 29.9411 40.606 20Z" fill="#F16063"/>
<path d="M12.9458 25.625C14.6062 25.625 15.9523 24.3658 15.9523 22.8125C15.9523 21.2592 14.6062 20 12.9458 20C11.2853 20 9.93921 21.2592 9.93921 22.8125C9.93921 24.3658 11.2853 25.625 12.9458 25.625Z" fill="#EAC0B3"/>
<path d="M12.9458 25.0625H23.1681V39.0519C23.1681 39.0519 20.9775 40.25 18.057 40.25C15.1364 40.25 12.9458 38.2942 12.9458 38.2942V25.0625Z" fill="#EAC0B3"/>
<path d="M23.0545 31.8755C23.0545 34.9046 22.5313 34.6177 19.1261 34.6177C15.7209 34.6177 14.1496 32.1624 14.1496 29.1333C14.1496 26.1048 14.0204 23.375 16.7683 23.375C24.5391 23.6427 23.0545 28.8464 23.0545 31.8755Z" fill="#C99688"/>
<path d="M29.714 22.3062C29.714 27.3249 28.8806 33.4961 22.2661 33.4961C15.6517 33.4961 12.6019 27.3249 12.6019 22.3062C11.1419 16.3437 11.4425 9.3125 21.3642 9.3125C31.2858 9.3125 29.714 17.2871 29.714 22.3062Z" fill="#F5D0C5"/>
<path d="M24.9719 25.0625H24.3706C24.0385 25.0625 23.7693 25.3143 23.7693 25.625C23.7693 25.9357 24.0385 26.1875 24.3706 26.1875H24.9719C25.304 26.1875 25.5732 25.9357 25.5732 25.625C25.5732 25.3143 25.304 25.0625 24.9719 25.0625Z" fill="#EAC0B3"/>
<path d="M24.972 35.75H11.7431C8.75425 35.75 6.3313 38.0166 6.3313 40.8125V43.625C6.3313 46.4209 8.75425 48.6875 11.7431 48.6875H24.972C27.9608 48.6875 30.3838 46.4209 30.3838 43.625V40.8125C30.3838 38.0166 27.9608 35.75 24.972 35.75Z" fill="#3633E0"/>
<path d="M12.3445 34.625H23.7694V36.3125C23.7694 36.3125 20.7628 36.875 18.0569 36.875C15.351 36.875 12.3445 36.3125 12.3445 36.3125V34.625Z" fill="#3633E0"/>
<path d="M12.3445 34.625H23.7694V35.75C23.7694 35.75 21.9655 36.5938 18.0569 36.5938C14.1484 36.5938 12.3445 35.75 12.3445 35.75V34.625Z" fill="#362ABC"/>
<path d="M12.0437 35.1875C12.0437 34.8891 12.1704 34.603 12.3959 34.392C12.6215 34.181 12.9274 34.0625 13.2463 34.0625H22.8673C23.1863 34.0625 23.4922 34.181 23.7177 34.392C23.9432 34.603 24.0699 34.8891 24.0699 35.1875C24.0699 35.1875 21.0634 35.75 18.0568 35.75C15.0503 35.75 12.0437 35.1875 12.0437 35.1875Z" fill="#3633E0"/>
<path fill-rule="evenodd" clip-rule="evenodd" d="M30.9851 16.0624C30.9848 13.4016 29.8649 10.8479 27.8675 8.95353C25.8702 7.05916 23.1559 5.97641 20.3118 5.93945C17.4678 5.9025 14.7224 6.9143 12.6696 8.75603C10.6168 10.5978 9.42142 13.1214 9.3421 15.7811H9.33789V38.5624H15.9523V21.4607C17.4466 21.1918 20.0292 20.6001 23.2931 19.3479C26.5787 18.0874 28.6286 16.896 29.7079 16.1771C29.8534 17.5969 29.8029 19.0796 29.756 20.4578C29.7344 21.1024 29.7133 21.7234 29.7133 22.3056C29.7133 22.5351 29.7085 22.7657 29.6983 22.9969C29.8372 22.9558 29.9671 22.9108 30.0825 22.8619C30.9845 22.4771 30.9845 21.9636 30.9845 21.9636V16.0624H30.9851ZM11.1418 20.5624C10.7101 20.8645 10.3735 21.2701 10.1677 21.7363C9.91236 22.3132 9.86949 22.9532 10.0459 23.5554C10.2222 24.1576 10.6078 24.6878 11.1418 25.0624V20.5624Z" fill="#1B0B47"/>
<path d="M19.5173 27.875C19.5173 27.7258 19.5807 27.5827 19.6935 27.4773C19.8062 27.3718 19.9592 27.3125 20.1186 27.3125H25.6164C25.7759 27.3125 25.9289 27.3718 26.0416 27.4773C26.1544 27.5827 26.2178 27.7258 26.2178 27.875C26.2178 28.6209 25.901 29.3363 25.3372 29.8637C24.7733 30.3912 24.0086 30.6875 23.2112 30.6875H22.5239C21.7265 30.6875 20.9618 30.3912 20.3979 29.8637C19.8341 29.3363 19.5173 28.6209 19.5173 27.875Z" fill="#66253C"/>
<path fill-rule="evenodd" clip-rule="evenodd" d="M24.2232 30.5244C23.8984 30.6327 23.5561 30.6879 23.2112 30.6875H22.5239C21.7474 30.6875 21.0009 30.4064 20.4409 29.9031C19.8809 29.3998 19.5508 28.7134 19.5198 27.9875C19.9792 27.8266 20.6611 27.8452 21.3339 27.8637C21.548 27.8694 21.7609 27.875 21.9653 27.875C23.2942 27.875 24.3706 28.7564 24.3706 29.8437C24.3706 30.0828 24.3182 30.3123 24.2232 30.5244Z" fill="#B03E67"/>
<path d="M20.1614 27.3125H26.1745V27.875C26.1745 28.0242 26.1111 28.1673 25.9984 28.2727C25.8856 28.3782 25.7327 28.4375 25.5732 28.4375H20.7627C20.6032 28.4375 20.4503 28.3782 20.3375 28.2727C20.2247 28.1673 20.1614 28.0242 20.1614 27.875V27.3125Z" fill="white"/>
<path d="M21.9653 23.0938C21.9653 22.6278 21.5615 22.25 21.0633 22.25C20.5652 22.25 20.1614 22.6278 20.1614 23.0938V23.6562C20.1614 24.1222 20.5652 24.5 21.0633 24.5C21.5615 24.5 21.9653 24.1222 21.9653 23.6562V23.0938Z" fill="#1B0B47"/>
<path d="M27.9785 23.0938C27.9785 22.6278 27.5747 22.25 27.0765 22.25C26.5784 22.25 26.1746 22.6278 26.1746 23.0938V23.6562C26.1746 24.1222 26.5784 24.5 27.0765 24.5C27.5747 24.5 27.9785 24.1222 27.9785 23.6562V23.0938Z" fill="#1B0B47"/>
</g>
<defs>
<clipPath id="clip0_45_174">
<rect x="2.12207" y="2" width="38.4839" height="36" rx="18" fill="white"/>
</clipPath>
</defs>
</svg>
