<svg width="144" height="52" viewBox="0 0 144 52" fill="none" xmlns="http://www.w3.org/2000/svg">
<rect width="138" height="52" rx="10" fill="black"/>
<path d="M28.2261 26.6679C31.0157 25.1068 33.1303 23.9172 33.3126 23.8247C33.8957 23.5087 34.4979 22.6722 33.3126 22.0224C32.9299 21.8181 30.8696 20.6655 28.2261 19.1792L24.5616 22.9513L28.2261 26.6678V26.6679Z" fill="#FFD900"/>
<path d="M24.5616 22.9514L12.8932 34.9377C13.1671 34.9746 13.4763 34.9006 13.8409 34.6964C14.6062 34.2693 22.7198 29.7532 28.2261 26.6689L24.5616 22.9514Z" fill="#F43249"/>
<path d="M24.5616 22.9513L28.2261 19.1977C28.2261 19.1977 14.6616 11.6525 13.8409 11.2071C13.5317 11.0205 13.1852 10.965 12.8751 11.0205L24.5616 22.9513Z" fill="#00EE76"/>
<path d="M24.5616 22.9513L12.8751 11.0205C12.4008 11.1323 12 11.5594 12 12.4328V33.5252C12 34.3247 12.3101 34.9005 12.8932 34.956L24.5616 22.9513Z" fill="#00D3FF"/>
<path d="M49.1816 14.3672V17.082C49.0807 17.2155 48.9229 17.362 48.708 17.5215C48.4964 17.6777 48.2148 17.8128 47.8633 17.9268C47.5117 18.0407 47.0739 18.0977 46.5498 18.0977C46.1038 18.0977 45.6953 18.0228 45.3242 17.873C44.9531 17.7201 44.6325 17.4971 44.3623 17.2041C44.0954 16.9111 43.8887 16.5547 43.7422 16.1348C43.5957 15.7116 43.5225 15.2298 43.5225 14.6895V14.1963C43.5225 13.6592 43.5892 13.1807 43.7227 12.7607C43.8594 12.3376 44.0547 11.9795 44.3086 11.6865C44.5625 11.3936 44.8685 11.1722 45.2266 11.0225C45.5879 10.8695 45.9964 10.793 46.4521 10.793C47.0348 10.793 47.5166 10.8906 47.8975 11.0859C48.2816 11.278 48.5778 11.5449 48.7861 11.8867C48.9945 12.2285 49.1263 12.6191 49.1816 13.0586H47.9805C47.9414 12.8112 47.8649 12.5898 47.751 12.3945C47.6403 12.1992 47.4808 12.0462 47.2725 11.9355C47.0674 11.8216 46.8005 11.7646 46.4717 11.7646C46.1885 11.7646 45.9395 11.8184 45.7246 11.9258C45.5098 12.0332 45.3307 12.1911 45.1875 12.3994C45.0475 12.6077 44.9417 12.8617 44.8701 13.1611C44.7985 13.4606 44.7627 13.8024 44.7627 14.1865V14.6895C44.7627 15.0801 44.8034 15.4268 44.8848 15.7295C44.9694 16.0322 45.0898 16.2878 45.2461 16.4961C45.4056 16.7044 45.5993 16.8623 45.8271 16.9697C46.055 17.0739 46.3122 17.126 46.5986 17.126C46.8786 17.126 47.1081 17.1032 47.2871 17.0576C47.4661 17.0088 47.6077 16.9518 47.7119 16.8867C47.8193 16.8184 47.9023 16.7533 47.9609 16.6914V15.2803H46.4814V14.3672H49.1816ZM55.1924 17.0283V18H51.418V17.0283H55.1924ZM51.7646 10.8906V18H50.5391V10.8906H51.7646ZM54.6992 13.8594V14.8164H51.418V13.8594H54.6992ZM55.168 10.8906V11.8672H51.418V10.8906H55.168ZM59.2158 10.8906V18H58V10.8906H59.2158ZM61.4473 10.8906V11.8672H55.7881V10.8906H61.4473ZM65.9492 10.8906V18H64.7236V10.8906H65.9492ZM70.251 10.8906V18H69.0352V10.8906H70.251ZM72.4824 10.8906V11.8672H66.8232V10.8906H72.4824ZM81.3447 14.25V14.6406C81.3447 15.1777 81.2747 15.6595 81.1348 16.0859C80.9948 16.5124 80.7946 16.8753 80.5342 17.1748C80.277 17.4743 79.9678 17.7038 79.6064 17.8633C79.2451 18.0195 78.8447 18.0977 78.4053 18.0977C77.9691 18.0977 77.5703 18.0195 77.209 17.8633C76.8509 17.7038 76.54 17.4743 76.2764 17.1748C76.0127 16.8753 75.8076 16.5124 75.6611 16.0859C75.5179 15.6595 75.4463 15.1777 75.4463 14.6406V14.25C75.4463 13.7129 75.5179 13.2327 75.6611 12.8096C75.8044 12.3831 76.0062 12.0202 76.2666 11.7207C76.5303 11.418 76.8411 11.1885 77.1992 11.0322C77.5605 10.8727 77.9593 10.793 78.3955 10.793C78.835 10.793 79.2354 10.8727 79.5967 11.0322C79.958 11.1885 80.2689 11.418 80.5293 11.7207C80.7897 12.0202 80.9899 12.3831 81.1299 12.8096C81.2731 13.2327 81.3447 13.7129 81.3447 14.25ZM80.1191 14.6406V14.2402C80.1191 13.8431 80.0801 13.4932 80.002 13.1904C79.9271 12.8844 79.8148 12.6289 79.665 12.4238C79.5186 12.2155 79.3379 12.0592 79.123 11.9551C78.9082 11.8477 78.6657 11.7939 78.3955 11.7939C78.1253 11.7939 77.8844 11.8477 77.6729 11.9551C77.4613 12.0592 77.2806 12.2155 77.1309 12.4238C76.9844 12.6289 76.8721 12.8844 76.7939 13.1904C76.7158 13.4932 76.6768 13.8431 76.6768 14.2402V14.6406C76.6768 15.0378 76.7158 15.3893 76.7939 15.6953C76.8721 16.0013 76.986 16.2601 77.1357 16.4717C77.2887 16.68 77.471 16.8379 77.6826 16.9453C77.8942 17.0495 78.1351 17.1016 78.4053 17.1016C78.6787 17.1016 78.9212 17.0495 79.1328 16.9453C79.3444 16.8379 79.5234 16.68 79.6699 16.4717C79.8164 16.2601 79.9271 16.0013 80.002 15.6953C80.0801 15.3893 80.1191 15.0378 80.1191 14.6406ZM88.21 10.8906V18H86.9844L83.7959 12.9072V18H82.5703V10.8906H83.7959L86.9941 15.9932V10.8906H88.21Z" fill="white"/>
<path d="M52.8906 29.1875V33.5312C52.7292 33.7448 52.4766 33.9792 52.1328 34.2344C51.7943 34.4844 51.3438 34.7005 50.7812 34.8828C50.2188 35.0651 49.5182 35.1562 48.6797 35.1562C47.9661 35.1562 47.3125 35.0365 46.7188 34.7969C46.125 34.5521 45.612 34.1953 45.1797 33.7266C44.7526 33.2578 44.4219 32.6875 44.1875 32.0156C43.9531 31.3385 43.8359 30.5677 43.8359 29.7031V28.9141C43.8359 28.0547 43.9427 27.2891 44.1562 26.6172C44.375 25.9401 44.6875 25.3672 45.0938 24.8984C45.5 24.4297 45.9896 24.0755 46.5625 23.8359C47.1406 23.5911 47.7943 23.4688 48.5234 23.4688C49.4557 23.4688 50.2266 23.625 50.8359 23.9375C51.4505 24.2448 51.9245 24.6719 52.2578 25.2188C52.5911 25.7656 52.8021 26.3906 52.8906 27.0938H50.9688C50.9062 26.6979 50.7839 26.3438 50.6016 26.0312C50.4245 25.7188 50.1693 25.474 49.8359 25.2969C49.5078 25.1146 49.0807 25.0234 48.5547 25.0234C48.1016 25.0234 47.7031 25.1094 47.3594 25.2812C47.0156 25.4531 46.7292 25.7057 46.5 26.0391C46.276 26.3724 46.1068 26.7786 45.9922 27.2578C45.8776 27.737 45.8203 28.2839 45.8203 28.8984V29.7031C45.8203 30.3281 45.8854 30.8828 46.0156 31.3672C46.151 31.8516 46.3438 32.2604 46.5938 32.5938C46.849 32.9271 47.1589 33.1797 47.5234 33.3516C47.888 33.5182 48.2995 33.6016 48.7578 33.6016C49.2057 33.6016 49.5729 33.5651 49.8594 33.4922C50.1458 33.4141 50.3724 33.3229 50.5391 33.2188C50.7109 33.1094 50.8438 33.0052 50.9375 32.9062V30.6484H48.5703V29.1875H52.8906ZM54.5156 30.8672V30.6875C54.5156 30.0781 54.6042 29.513 54.7812 28.9922C54.9583 28.4661 55.2135 28.0104 55.5469 27.625C55.8854 27.2344 56.2969 26.9323 56.7812 26.7188C57.2708 26.5 57.8229 26.3906 58.4375 26.3906C59.0573 26.3906 59.6094 26.5 60.0938 26.7188C60.5833 26.9323 60.9974 27.2344 61.3359 27.625C61.6745 28.0104 61.9323 28.4661 62.1094 28.9922C62.2865 29.513 62.375 30.0781 62.375 30.6875V30.8672C62.375 31.4766 62.2865 32.0417 62.1094 32.5625C61.9323 33.0833 61.6745 33.5391 61.3359 33.9297C60.9974 34.3151 60.5859 34.6172 60.1016 34.8359C59.6172 35.0495 59.0677 35.1562 58.4531 35.1562C57.8333 35.1562 57.2786 35.0495 56.7891 34.8359C56.3047 34.6172 55.8932 34.3151 55.5547 33.9297C55.2161 33.5391 54.9583 33.0833 54.7812 32.5625C54.6042 32.0417 54.5156 31.4766 54.5156 30.8672ZM56.3984 30.6875V30.8672C56.3984 31.2474 56.4375 31.6068 56.5156 31.9453C56.5938 32.2839 56.7161 32.5807 56.8828 32.8359C57.0495 33.0911 57.263 33.2917 57.5234 33.4375C57.7839 33.5833 58.0938 33.6562 58.4531 33.6562C58.8021 33.6562 59.1042 33.5833 59.3594 33.4375C59.6198 33.2917 59.8333 33.0911 60 32.8359C60.1667 32.5807 60.2891 32.2839 60.3672 31.9453C60.4505 31.6068 60.4922 31.2474 60.4922 30.8672V30.6875C60.4922 30.3125 60.4505 29.9583 60.3672 29.625C60.2891 29.2865 60.1641 28.987 59.9922 28.7266C59.8255 28.4661 59.612 28.263 59.3516 28.1172C59.0964 27.9661 58.7917 27.8906 58.4375 27.8906C58.0833 27.8906 57.776 27.9661 57.5156 28.1172C57.2604 28.263 57.0495 28.4661 56.8828 28.7266C56.7161 28.987 56.5938 29.2865 56.5156 29.625C56.4375 29.9583 56.3984 30.3125 56.3984 30.6875ZM63.5938 30.8672V30.6875C63.5938 30.0781 63.6823 29.513 63.8594 28.9922C64.0365 28.4661 64.2917 28.0104 64.625 27.625C64.9635 27.2344 65.375 26.9323 65.8594 26.7188C66.349 26.5 66.901 26.3906 67.5156 26.3906C68.1354 26.3906 68.6875 26.5 69.1719 26.7188C69.6615 26.9323 70.0755 27.2344 70.4141 27.625C70.7526 28.0104 71.0104 28.4661 71.1875 28.9922C71.3646 29.513 71.4531 30.0781 71.4531 30.6875V30.8672C71.4531 31.4766 71.3646 32.0417 71.1875 32.5625C71.0104 33.0833 70.7526 33.5391 70.4141 33.9297C70.0755 34.3151 69.6641 34.6172 69.1797 34.8359C68.6953 35.0495 68.1458 35.1562 67.5312 35.1562C66.9115 35.1562 66.3568 35.0495 65.8672 34.8359C65.3828 34.6172 64.9714 34.3151 64.6328 33.9297C64.2943 33.5391 64.0365 33.0833 63.8594 32.5625C63.6823 32.0417 63.5938 31.4766 63.5938 30.8672ZM65.4766 30.6875V30.8672C65.4766 31.2474 65.5156 31.6068 65.5938 31.9453C65.6719 32.2839 65.7943 32.5807 65.9609 32.8359C66.1276 33.0911 66.3411 33.2917 66.6016 33.4375C66.862 33.5833 67.1719 33.6562 67.5312 33.6562C67.8802 33.6562 68.1823 33.5833 68.4375 33.4375C68.6979 33.2917 68.9115 33.0911 69.0781 32.8359C69.2448 32.5807 69.3672 32.2839 69.4453 31.9453C69.5286 31.6068 69.5703 31.2474 69.5703 30.8672V30.6875C69.5703 30.3125 69.5286 29.9583 69.4453 29.625C69.3672 29.2865 69.2422 28.987 69.0703 28.7266C68.9036 28.4661 68.6901 28.263 68.4297 28.1172C68.1745 27.9661 67.8698 27.8906 67.5156 27.8906C67.1615 27.8906 66.8542 27.9661 66.5938 28.1172C66.3385 28.263 66.1276 28.4661 65.9609 28.7266C65.7943 28.987 65.6719 29.2865 65.5938 29.625C65.5156 29.9583 65.4766 30.3125 65.4766 30.6875ZM78.4453 26.5469H80.1562V34.7656C80.1562 35.526 79.9948 36.1719 79.6719 36.7031C79.349 37.2344 78.8984 37.638 78.3203 37.9141C77.7422 38.1953 77.0729 38.3359 76.3125 38.3359C75.9896 38.3359 75.6302 38.2891 75.2344 38.1953C74.8438 38.1016 74.4635 37.9505 74.0938 37.7422C73.7292 37.5391 73.4245 37.2708 73.1797 36.9375L74.0625 35.8281C74.3646 36.1875 74.6979 36.4505 75.0625 36.6172C75.4271 36.7839 75.8099 36.8672 76.2109 36.8672C76.6432 36.8672 77.0104 36.7865 77.3125 36.625C77.6198 36.4688 77.8568 36.237 78.0234 35.9297C78.1901 35.6224 78.2734 35.2474 78.2734 34.8047V28.4609L78.4453 26.5469ZM72.7031 30.8672V30.7031C72.7031 30.0625 72.7812 29.4792 72.9375 28.9531C73.0938 28.4219 73.3177 27.9661 73.6094 27.5859C73.901 27.2005 74.2552 26.9062 74.6719 26.7031C75.0885 26.4948 75.5599 26.3906 76.0859 26.3906C76.6328 26.3906 77.099 26.4896 77.4844 26.6875C77.875 26.8854 78.2005 27.1693 78.4609 27.5391C78.7214 27.9036 78.9245 28.3411 79.0703 28.8516C79.2214 29.3568 79.3333 29.9193 79.4062 30.5391V31.0625C79.3385 31.6667 79.224 32.2188 79.0625 32.7188C78.901 33.2188 78.6875 33.651 78.4219 34.0156C78.1562 34.3802 77.8281 34.6615 77.4375 34.8594C77.0521 35.0573 76.5964 35.1562 76.0703 35.1562C75.5547 35.1562 75.0885 35.0495 74.6719 34.8359C74.2604 34.6224 73.9062 34.3229 73.6094 33.9375C73.3177 33.5521 73.0938 33.099 72.9375 32.5781C72.7812 32.0521 72.7031 31.4818 72.7031 30.8672ZM74.5859 30.7031V30.8672C74.5859 31.2526 74.6224 31.612 74.6953 31.9453C74.7734 32.2786 74.8906 32.5729 75.0469 32.8281C75.2083 33.0781 75.4115 33.276 75.6562 33.4219C75.9062 33.5625 76.2005 33.6328 76.5391 33.6328C76.9818 33.6328 77.3438 33.5391 77.625 33.3516C77.9115 33.1641 78.1302 32.9115 78.2812 32.5938C78.4375 32.2708 78.5469 31.9115 78.6094 31.5156V30.1016C78.5781 29.7943 78.513 29.5078 78.4141 29.2422C78.3203 28.9766 78.1927 28.7448 78.0312 28.5469C77.8698 28.3438 77.6667 28.1875 77.4219 28.0781C77.1771 27.9635 76.888 27.9062 76.5547 27.9062C76.2161 27.9062 75.9219 27.9792 75.6719 28.125C75.4219 28.2708 75.2161 28.4714 75.0547 28.7266C74.8984 28.9818 74.7812 29.2786 74.7031 29.6172C74.625 29.9557 74.5859 30.3177 74.5859 30.7031ZM84.125 23V35H82.2344V23H84.125ZM89.9141 35.1562C89.2891 35.1562 88.724 35.0547 88.2188 34.8516C87.7188 34.6432 87.2917 34.3542 86.9375 33.9844C86.5885 33.6146 86.3203 33.1797 86.1328 32.6797C85.9453 32.1797 85.8516 31.6406 85.8516 31.0625V30.75C85.8516 30.0885 85.9479 29.4896 86.1406 28.9531C86.3333 28.4167 86.6016 27.9583 86.9453 27.5781C87.2891 27.1927 87.6953 26.8984 88.1641 26.6953C88.6328 26.4922 89.1406 26.3906 89.6875 26.3906C90.2917 26.3906 90.8203 26.4922 91.2734 26.6953C91.7266 26.8984 92.1016 27.1849 92.3984 27.5547C92.7005 27.9193 92.9245 28.3542 93.0703 28.8594C93.2214 29.3646 93.2969 29.9219 93.2969 30.5312V31.3359H86.7656V29.9844H91.4375V29.8359C91.4271 29.4974 91.3594 29.1797 91.2344 28.8828C91.1146 28.5859 90.9297 28.3464 90.6797 28.1641C90.4297 27.9818 90.0964 27.8906 89.6797 27.8906C89.3672 27.8906 89.0885 27.9583 88.8438 28.0938C88.6042 28.224 88.4036 28.4141 88.2422 28.6641C88.0807 28.9141 87.9557 29.2161 87.8672 29.5703C87.7839 29.9193 87.7422 30.3125 87.7422 30.75V31.0625C87.7422 31.4323 87.7917 31.776 87.8906 32.0938C87.9948 32.4062 88.1458 32.6797 88.3438 32.9141C88.5417 33.1484 88.7812 33.3333 89.0625 33.4688C89.3438 33.599 89.6641 33.6641 90.0234 33.6641C90.4766 33.6641 90.8802 33.5729 91.2344 33.3906C91.5885 33.2083 91.8958 32.9505 92.1562 32.6172L93.1484 33.5781C92.9661 33.8438 92.7292 34.099 92.4375 34.3438C92.1458 34.5833 91.7891 34.7786 91.3672 34.9297C90.9505 35.0807 90.4661 35.1562 89.9141 35.1562ZM103.258 30.7578H100.297V29.2031H103.258C103.773 29.2031 104.19 29.1198 104.508 28.9531C104.826 28.7865 105.057 28.5573 105.203 28.2656C105.354 27.9688 105.43 27.6302 105.43 27.25C105.43 26.8906 105.354 26.5547 105.203 26.2422C105.057 25.9245 104.826 25.6693 104.508 25.4766C104.19 25.2839 103.773 25.1875 103.258 25.1875H100.898V35H98.9375V23.625H103.258C104.138 23.625 104.885 23.7812 105.5 24.0938C106.12 24.401 106.591 24.8281 106.914 25.375C107.237 25.9167 107.398 26.5365 107.398 27.2344C107.398 27.9688 107.237 28.599 106.914 29.125C106.591 29.651 106.12 30.0547 105.5 30.3359C104.885 30.6172 104.138 30.7578 103.258 30.7578ZM110.984 23V35H109.094V23H110.984ZM117.812 33.3047V29.2734C117.812 28.9714 117.758 28.7109 117.648 28.4922C117.539 28.2734 117.372 28.1042 117.148 27.9844C116.93 27.8646 116.654 27.8047 116.32 27.8047C116.013 27.8047 115.747 27.8568 115.523 27.9609C115.299 28.0651 115.125 28.2057 115 28.3828C114.875 28.5599 114.812 28.7604 114.812 28.9844H112.938C112.938 28.651 113.018 28.3281 113.18 28.0156C113.341 27.7031 113.576 27.4245 113.883 27.1797C114.19 26.9349 114.557 26.7422 114.984 26.6016C115.411 26.4609 115.891 26.3906 116.422 26.3906C117.057 26.3906 117.62 26.4974 118.109 26.7109C118.604 26.9245 118.992 27.2474 119.273 27.6797C119.56 28.1068 119.703 28.6432 119.703 29.2891V33.0469C119.703 33.4323 119.729 33.7786 119.781 34.0859C119.839 34.388 119.919 34.651 120.023 34.875V35H118.094C118.005 34.7969 117.935 34.5391 117.883 34.2266C117.836 33.9089 117.812 33.6016 117.812 33.3047ZM118.086 29.8594L118.102 31.0234H116.75C116.401 31.0234 116.094 31.0573 115.828 31.125C115.562 31.1875 115.341 31.2812 115.164 31.4062C114.987 31.5312 114.854 31.6823 114.766 31.8594C114.677 32.0365 114.633 32.237 114.633 32.4609C114.633 32.6849 114.685 32.8906 114.789 33.0781C114.893 33.2604 115.044 33.4036 115.242 33.5078C115.445 33.612 115.69 33.6641 115.977 33.6641C116.362 33.6641 116.698 33.5859 116.984 33.4297C117.276 33.2682 117.505 33.0729 117.672 32.8438C117.839 32.6094 117.927 32.388 117.938 32.1797L118.547 33.0156C118.484 33.2292 118.378 33.4583 118.227 33.7031C118.076 33.9479 117.878 34.1823 117.633 34.4062C117.393 34.625 117.104 34.8047 116.766 34.9453C116.432 35.0859 116.047 35.1562 115.609 35.1562C115.057 35.1562 114.565 35.0469 114.133 34.8281C113.701 34.6042 113.362 34.3047 113.117 33.9297C112.872 33.5495 112.75 33.1198 112.75 32.6406C112.75 32.1927 112.833 31.7969 113 31.4531C113.172 31.1042 113.422 30.8125 113.75 30.5781C114.083 30.3438 114.49 30.1667 114.969 30.0469C115.448 29.9219 115.995 29.8594 116.609 29.8594H118.086ZM124 34.0781L126.297 26.5469H128.312L124.922 36.2891C124.844 36.4974 124.742 36.724 124.617 36.9688C124.492 37.2135 124.328 37.4453 124.125 37.6641C123.927 37.888 123.68 38.0677 123.383 38.2031C123.086 38.3438 122.727 38.4141 122.305 38.4141C122.138 38.4141 121.977 38.3984 121.82 38.3672C121.669 38.3411 121.526 38.3125 121.391 38.2812L121.383 36.8438C121.435 36.849 121.497 36.8542 121.57 36.8594C121.648 36.8646 121.711 36.8672 121.758 36.8672C122.07 36.8672 122.331 36.8281 122.539 36.75C122.747 36.6771 122.917 36.5573 123.047 36.3906C123.182 36.224 123.297 36 123.391 35.7188L124 34.0781ZM122.703 26.5469L124.711 32.875L125.047 34.8594L123.742 35.1953L120.672 26.5469H122.703Z" fill="white"/>
</svg>
